<?xml version="1.0" encoding="utf-8"?>
<!-- Generator: Adobe Illustrator 22.0.1, SVG Export Plug-In . SVG Version: 6.00 Build 0)  -->
<svg version="1.1" id="Artwork" xmlns="http://www.w3.org/2000/svg" xmlns:xlink="http://www.w3.org/1999/xlink" x="0px" y="0px"
	 viewBox="0 0 253.9 124.6" style="enable-background:new 0 0 253.9 124.6;" xml:space="preserve">
<style type="text/css">
	.st0{fill:#8D9096;}
	.st1{fill:none;}
</style>
<title>Intuit_2016_RGB_Black</title>
<g id="Logo">
	<path id="_" class="st0" d="M216.4,84.7c0-0.5-0.5-0.9-1-0.9c0,0-0.1,0-0.1,0h-1v3h0.5v-1.2h0.4l0.7,1.2h0.6l-0.8-1.3
		C216.1,85.5,216.4,85.1,216.4,84.7z M214.8,85.1v-0.8h0.5c0.3-0.1,0.5,0.1,0.6,0.4c0,0,0,0,0,0.1c0,0.3-0.3,0.5-0.6,0.4
		c0,0,0,0-0.1,0L214.8,85.1L214.8,85.1z M215.3,82.7c-1.5,0-2.6,1.2-2.6,2.7s1.2,2.6,2.7,2.6c1.4,0,2.6-1.2,2.6-2.7
		C218,83.9,216.8,82.7,215.3,82.7C215.3,82.7,215.3,82.7,215.3,82.7L215.3,82.7z M215.3,87.6c-1.2,0-2.2-1-2.2-2.2
		c0-1.2,1-2.2,2.2-2.2c1.2,0,2.2,1,2.2,2.2c0,0,0,0,0,0C217.5,86.6,216.5,87.6,215.3,87.6z"/>
	<path id="Intuit" class="st0" d="M36,51.6h9v36h-9V51.6z M74.1,50.5c-4.7-0.1-9,2.6-11.1,6.8h-0.1v-5.8h-8.5v36h9V67.8
		c0-4.8,2.7-9.8,8.4-9.8s6.8,5.3,6.8,9.6v20h9V65.1C87.4,57.7,83.5,50.5,74.1,50.5L74.1,50.5z M151.5,71.4c0,4.8-2.7,9.8-8.4,9.8
		s-6.8-5.3-6.8-9.6v-20h-9V74c0,7.4,3.9,14.5,13.3,14.5c4.7,0.1,9.1-2.6,11.2-6.8h0.1v5.8h8.5v-36h-9V71.4L151.5,71.4z M169.7,87.6
		h9v-36h-9V87.6z M91.9,59.6H102v28h9v-28h10.1v-8H92L91.9,59.6L91.9,59.6z M106.5,46.9c3,0,5.4-2.4,5.4-5.4s-2.4-5.4-5.4-5.4
		s-5.4,2.4-5.4,5.4C101.1,44.5,103.5,46.9,106.5,46.9L106.5,46.9z M185,51.6v8h10.1v28h9v-28h10.1v-8H185L185,51.6z M199.6,46.9
		c3,0,5.4-2.4,5.4-5.4s-2.4-5.4-5.4-5.4s-5.4,2.4-5.4,5.4C194.2,44.5,196.7,46.9,199.6,46.9L199.6,46.9z"/>
</g>
<rect id="Clearspace" class="st1" width="253.9" height="124.6"/>
</svg>
